<!DOCTYPE svg PUBLIC "-//W3C//DTD SVG 1.1//EN" "http://www.w3.org/Graphics/SVG/1.1/DTD/svg11.dtd">
<!-- Uploaded to: SVG Repo, www.svgrepo.com, Transformed by: SVG Repo Mixer Tools -->
<svg fill="#00aaff" version="1.1" id="Layer_1" xmlns="http://www.w3.org/2000/svg" xmlns:xlink="http://www.w3.org/1999/xlink" viewBox="0 0 512 512" xml:space="preserve" width="800px" height="800px" stroke="#00aaff">
<g id="SVGRepo_bgCarrier" stroke-width="0"/>
<g id="SVGRepo_tracerCarrier" stroke-linecap="round" stroke-linejoin="round"/>
<g id="SVGRepo_iconCarrier"> <g> <g> <rect x="188.176" y="88.158" width="32.193" height="32.193"/> </g> </g> <g> <g> <rect x="239.898" y="88.158" width="32.193" height="32.193"/> </g> </g> <g> <g> <rect x="291.631" y="88.158" width="32.193" height="32.193"/> </g> </g> <g> <g> <rect x="188.176" y="138.836" width="32.193" height="32.193"/> </g> </g> <g> <g> <rect x="239.898" y="138.836" width="32.193" height="32.193"/> </g> </g> <g> <g> <rect x="291.631" y="138.836" width="32.193" height="32.193"/> </g> </g> <g> <g> <rect x="188.176" y="189.513" width="32.193" height="32.193"/> </g> </g> <g> <g> <rect x="239.898" y="189.513" width="32.193" height="32.193"/> </g> </g> <g> <g> <rect x="291.631" y="189.513" width="32.193" height="32.193"/> </g> </g> <g> <g> <rect x="188.176" y="240.191" width="32.193" height="32.193"/> </g> </g> <g> <g> <rect x="239.898" y="240.191" width="32.193" height="32.193"/> </g> </g> <g> <g> <rect x="291.631" y="240.191" width="32.193" height="32.193"/> </g> </g> <g> <g> <path d="M460.727,455.199V155.355h-77.322V25.454H128.596v129.902H51.273v299.844H0v31.347h51.273h77.322h31.347h54.784h82.547 h54.784h31.347h77.322H512v-31.347H460.727z M128.596,455.199H82.62V186.702h45.975V455.199z M265.927,455.199h-19.853v-68.208 h19.853V455.199z M352.057,455.199h-54.784v-99.555h-82.547v99.555h-54.784V331.073h192.115V455.199z M352.057,155.354v144.37 H159.943V155.355V56.801h192.115V155.354z M429.38,455.199h-45.975V186.702h45.975V455.199z"/> </g> </g> </g>
</svg>